<?xml version="1.0" encoding="UTF-8" standalone="no"?>
<svg
   width="2500"
   height="2500"
   viewBox="0 0 192.756 192.756"
   version="1.1"
   id="svg8"
   sodipodi:docname="svg.svg"
   inkscape:version="1.2.1 (9c6d41e410, 2022-07-14)"
   xmlns:inkscape="http://www.inkscape.org/namespaces/inkscape"
   xmlns:sodipodi="http://sodipodi.sourceforge.net/DTD/sodipodi-0.dtd"
   xmlns="http://www.w3.org/2000/svg"
   xmlns:svg="http://www.w3.org/2000/svg">
  <defs
     id="defs12" />
  <sodipodi:namedview
     id="namedview10"
     pagecolor="#ffffff"
     bordercolor="#000000"
     borderopacity="0.25"
     inkscape:showpageshadow="2"
     inkscape:pageopacity="0.0"
     inkscape:pagecheckerboard="0"
     inkscape:deskcolor="#d1d1d1"
     showgrid="false"
     inkscape:zoom="0.226"
     inkscape:cx="1247.7876"
     inkscape:cy="1254.4248"
     inkscape:window-width="1366"
     inkscape:window-height="748"
     inkscape:window-x="-8"
     inkscape:window-y="-8"
     inkscape:window-maximized="1"
     inkscape:current-layer="svg8" />
  <g
     fill-rule="evenodd"
     clip-rule="evenodd"
     id="g6">
    <path
       fill="#fff"
       d="M0 0h192.756v192.756H0V0z"
       id="path2" />
    <path
       d="M133.057 137.084l.066-.086c3.297-3.734 6.041-8.02 8.242-12.414 3.623 2.416 8.016 3.955 12.633 3.955 10.215 0 19.334-5.162 20.873-15.709h-17.906V98.217h32.957v43.943h-13.625v-7.908c-5.932 5.604-13.182 9.008-22.299 9.008-7.691 0-14.834-2.197-20.875-6.262-.328-.109-.658-.33-.988-.549-10.107-7.361-16.809-19.664-16.809-33.617 0-4.066.441-7.799 1.209-11.426l-16.26 51.195H84.457L65.67 83.716c.112 1.21.33 2.417.33 3.626H50.401c-.112-.55-.219-1.209-.441-1.867-.769-2.747-2.636-4.944-3.953-5.823-.441-.331-1.21-.768-2.197-1.209-1.21-.55-2.857-1.099-4.725-1.537-2.197 5.055-3.845 10.545-4.505 16.26.549.108 1.099.219 1.759.219 1.978.33 4.614.55 7.471.88 2.085.219 4.172.549 6.15.988 4.286.876 8.461 2.197 11.315 4.395 5.604 4.613 8.351 10.986 7.472 20.65-.661 6.924-5.055 13.516-9.557 17.029-1.648 1.1-4.617 2.307-7.583 3.297 1.759 2.527 8.021 6.701 12.084 8.9h54.163c4.834-2.639 10.984-7.584 14.279-11.428v.111c.33-.33.66-.66.988-1.102a.679.679 0 0 1-.064-.021zm-91.444-8.875c2.746 4.613 6.042 8.789 9.888 12.414-4.836 1.648-10.548 2.967-16.92 2.967-9.887 0-17.905-3.406-22.299-6.922-4.616-3.734-9.446-11.535-9.446-20.762H19.2c0 9.115 9.449 12.963 17.027 12.963 1.76 0 3.627-.33 5.386-.66zm-6.811-19.336c-.552-3.074-.661-6.041-.661-9.115 0-2.201.109-4.395.331-6.484-7.363-.879-13.844-3.296-13.844-7.909 0-5.712 6.591-8.789 12.084-9.008 1.979-.111 4.175.219 6.262.657a55.756 55.756 0 0 1 8.239-13.402c-3.623-.988-7.909-1.428-12.192-1.428-9.338 0-18.018 3.407-23.731 8.35-5.273 4.613-7.029 10.434-7.029 17.688 0 4.284 1.756 7.471 6.264 12.085 3.842 4.064 16.584 7.248 24.277 8.566zm55.807-65.64c16.205-.055 31.141 7.031 41.525 18.292 1.336 1.449 2.578 2.788 3.754 4.281 5.006-2.344 10.965-3.625 17.668-3.731 19.445.108 33.287 8.678 36.254 26.915h-16.588c-2.857-7.36-8.131-12.744-19.666-12.744-3.844 0-7.471 1.209-10.547 3.076-1.848-4.783-4.342-9.354-7.27-13.281a44.477 44.477 0 0 0-3.605 2.076c-6.15 3.954-10.656 9.669-13.291 16.479l6.918-22.521h-16.037l-17.358 55.917-1.978-5.932L74.9 62.075H58.86l4.284 13.292c-1.429-2.747-3.405-5.053-5.712-6.919-2.197-1.758-4.725-3.077-7.471-4.064-.769-.222-1.648-.552-2.525-.771.77-.988 1.648-1.978 2.525-2.966 10.216-10.66 24.444-17.358 40.648-17.414zm-46.799 67.29a37.478 37.478 0 0 0-5.715-1.209c-.768-.221-1.975-.33-3.185-.551 1.099 6.922 3.515 13.514 6.811 19.445.771-.107 1.429-.219 2.089-.33 1.317-.219 2.305-.439 2.966-.658 1.206-.33 2.308-1.098 3.185-2.307 1.867-2.086 2.857-5.055 2.419-7.252-.441-1.426-1.209-2.635-2.419-3.734-1.538-1.536-3.735-2.636-6.151-3.404zm88.325-16.7c-.879 2.855-1.318 5.935-1.318 9.009 0 3.186.439 6.152 1.318 8.898 1.76 5.273 5.055 9.777 9.449 12.744a57.16 57.16 0 0 0 5.602-24.717c0-7.142-1.318-14.064-3.955-20.546-5.165 3.185-9.01 8.461-11.096 14.612z"
       fill="#757fb5"
       id="path4" />
  </g>
  <path
     style="fill:#e55039;stroke-width:4.42478;fill-opacity:1"
     d="m 1191.7256,1506.0751 c -2.6309,-8.2086 -44.9679,-144.3494 -94.0823,-302.5353 C 1048.529,1045.354 1000.4079,890.54204 990.70762,859.51327 L 973.07077,803.09735 H 866.59296 c -86.88702,0 -106.06149,1.08494 -104.21502,5.89675 1.24454,3.24322 10.6081,32.44809 20.8079,64.89971 10.19981,32.45161 19.65357,62.15427 21.00836,66.00589 1.3548,3.85163 -8.86331,-5.3367 -22.7069,-20.41849 -37.44573,-40.79497 -98.13973,-77.5385 -156.88884,-94.97891 -14.74993,-4.37871 97.39181,-107.60687 160.15781,-147.42768 70.16296,-44.51368 161.72912,-81.25739 248.42953,-99.68992 63.5611,-13.51309 177.9661,-16.77308 244.5343,-6.96804 125.7333,18.51962 253.5195,74.11263 351.3183,152.83999 20.2899,16.33327 58.2989,52.20109 84.4643,79.70627 l 47.5735,50.00942 -28.6163,16.72242 c -63.0737,36.85812 -110.2546,81.40819 -149.1453,140.82874 -11.7523,17.956 -21.3677,31.253 -21.3677,29.5489 0,-1.7042 15.9292,-54.58186 35.3982,-117.50603 19.4691,-62.92417 35.3983,-115.5464 35.3983,-116.9383 0,-1.3919 -47.7876,-2.53072 -106.1947,-2.53072 -58.4071,0 -106.1947,0.72738 -106.1947,1.6164 0,3.17442 -216.7443,699.87435 -220.2593,707.99855 -3.077,7.1119 -4.2642,6.1704 -8.3691,-6.6372 z"
     id="path256"
     transform="scale(0.0771024)" />
  <path
     style="fill:#e55039;fill-opacity:1;stroke-width:4.42478"
     d="m 786.38981,1912.6106 c -46.00038,-28.0582 -109.39866,-77.4491 -109.39866,-85.2276 0,-3.095 5.44333,-6.9934 12.09628,-8.6631 6.65295,-1.6699 27.06224,-9.9343 45.35398,-18.3655 68.71025,-31.6705 132.44532,-115.9449 152.72045,-201.9363 3.82265,-16.2127 6.53964,-49.7177 6.57805,-81.1174 0.11062,-90.4954 -22.02214,-151.4105 -74.49895,-205.0403 -51.34973,-52.4781 -128.04517,-78.0744 -286.05512,-95.4681 -88.93152,-9.7896 -82.93064,-7.354 -79.34626,-32.2046 4.8857,-33.8728 22.22665,-98.873 38.02073,-142.5157 l 14.71763,-40.6681 14.64127,2.376 c 28.51013,4.6265 76.10109,30.2322 94.01494,50.5834 15.85847,18.0161 35.20833,58.7519 35.20833,74.1213 0,5.4942 15.64908,6.4712 103.65786,6.4712 91.66785,0 103.82333,-0.8226 105.08849,-7.1112 1.14544,-5.6935 104.18334,312.2764 217.04857,669.8013 l 17.1364,54.2831 104.7997,-1.1857 104.7997,-1.1858 95.5433,-300.8849 c 52.5488,-165.4868 96.382,-303.3807 97.4072,-306.431 1.0251,-3.0503 1.175,27.8171 0.3332,68.5942 -2.294,111.0993 12.8557,183.2837 56.8996,271.1116 34.0663,67.9314 94.0488,140.384 154.6124,186.7555 l 15.291,11.7078 -35.2025,34.0852 c -38.7903,37.5593 -92.3054,80.4918 -131.2288,105.2783 l -25.2301,16.0665 h -353.4619 -353.462 z"
     id="path1349"
     transform="scale(0.0771024)" />
  <path
     style="fill:#e55039;fill-opacity:1;stroke-width:4.42478"
     d="m 2232.534,1118.5973 c -20.4727,-39.8761 -59.9341,-81.8733 -93.9299,-99.9659 -36.3921,-19.36791 -84.5126,-29.69335 -138.3823,-29.69335 -51.2983,0 -83.6243,6.52726 -120.5523,24.34195 -14.0019,6.7547 -24.0224,9.4136 -24.9532,6.6211 -5.8997,-17.6991 -48.7975,-99.348 -67.5825,-128.63216 -12.5084,-19.49952 -21.9162,-36.28004 -20.9062,-37.29006 1.01,-1.01001 22.6614,-8.76774 48.1141,-17.2394 169.1621,-56.30365 379.078,-28.37723 503.6293,67.00098 64.5159,49.40466 115.6007,130.71614 133.5283,212.53654 2.5176,11.4901 5.6342,24.3757 6.9258,28.6345 2.1907,7.224 -4.7205,7.7421 -103.0384,7.7244 L 2250,1152.6169 Z"
     id="path1351"
     transform="scale(0.0771024)" />
  <path
     style="fill:#e55039;fill-opacity:1;stroke-width:4.42478"
     d="m 1811.1378,1591.4003 c -48.1507,-38.0611 -89.1231,-109.4188 -104.0204,-181.1627 -7.1652,-34.5068 -8.4478,-53.0135 -6.5055,-93.8659 4.219,-88.7388 30.555,-156.6433 87.7089,-226.148 18.1549,-22.078 64.3527,-59.8216 68.3403,-55.834 6.0872,6.0872 29.0259,83.8862 37.1576,126.024 24.5695,127.316 12.0276,267.8729 -35.0496,392.8006 -9.995,26.5236 -19.8374,49.8894 -21.872,51.924 -2.0346,2.0346 -13.6263,-4.1475 -25.7593,-13.738 z"
     id="path1353"
     transform="scale(0.0771024)" />
  <path
     style="fill:#e55039;fill-opacity:1;stroke-width:4.42478"
     d="m 1931.2922,1851.8835 c -60.344,-8.5676 -120.7514,-29.1653 -171.2632,-58.3973 l -29.7941,-17.2424 20.4925,-25.1592 c 21.53,-26.4331 52.1459,-72.4684 67.358,-101.2827 16.0664,-30.4322 13.2313,-29.8497 53.9094,-11.0776 60.389,27.8682 108.2148,35.6831 168.9295,27.6034 87.5941,-11.6566 153.373,-47.4179 190.7234,-103.6886 17.3854,-26.1921 31.0084,-58.1635 35.6462,-83.6568 l 3.0186,-16.5929 H 2155.0678 2039.823 v -92.9204 -92.9203 H 2250 2460.177 v 283.1858 283.1859 h -86.2832 -86.2832 v -50.885 c 0,-27.9867 -1.6825,-50.885 -3.739,-50.885 -2.0564,0 -7.5321,4.2185 -12.1681,9.3744 -28.593,31.7994 -113.1523,77.3174 -172.146,92.6656 -40.0467,10.4187 -125.1455,14.8152 -168.2653,8.6931 z"
     id="path1355"
     transform="scale(0.0771024)" />
  <path
     style="fill:#e55039;fill-opacity:1;stroke-width:4.42478"
     d="m 429.20354,1406.2116 c -6.08407,-1.0314 -39.45076,-8.7861 -74.1482,-17.2327 -153.2046,-37.2953 -211.99553,-70.104 -264.072047,-147.3671 -27.841525,-41.307 -35.36003,-71.0653 -31.954648,-126.4768 3.309138,-53.8455 12.025693,-88.0034 32.363964,-126.82602 C 139.01195,897.41105 266.24258,826.30234 407.7773,811.48281 c 53.0686,-5.5566 143.80221,-0.25049 180.08876,10.53161 l 18.23806,5.41921 -28.57775,39.82301 c -15.71779,21.90265 -38.98854,59.88906 -51.71287,84.41424 l -23.13505,44.59123 -22.35693,-4.1076 c -32.87807,-6.04062 -93.46343,-1.63636 -122.65716,8.91659 -63.4745,22.9448 -99.33045,70.0332 -90.23701,118.5054 7.68817,40.9815 72.20238,77.469 156.94733,88.7652 l 20.31559,2.708 v 99.1229 c 0,54.5176 -0.99558,98.8509 -2.21239,98.5186 -1.21682,-0.3323 -7.19027,-1.4482 -13.27434,-2.4796 z"
     id="path1357"
     transform="scale(0.0771024)" />
  <path
     style="fill:#e55039;fill-opacity:1;stroke-width:4.42478"
     d="M 378.31858,1855.9483 C 294.63308,1844.6382 197.31862,1803.7509 150.1516,1760.0825 90.406292,1704.7689 49.179748,1620.0511 41.350949,1536.5044 l -2.798732,-29.8672 H 143.16992 247.78761 v 13.1083 c 0,22.4224 17.31218,60.7254 37.69162,83.3923 22.74622,25.2992 66.57471,49.8359 108.21106,60.5801 31.65023,8.1673 87.48329,10.6774 122.07042,5.4879 l 22.39787,-3.3606 29.22854,43.1836 c 16.07571,23.751 44.25354,59.3465 62.61739,79.1013 l 33.38885,35.9177 -42.97986,11.3818 c -23.63894,6.2601 -54.92677,13.5611 -69.52854,16.2245 -37.39806,6.8216 -135.75626,9.2691 -172.56638,4.2942 z"
     id="path1359"
     transform="scale(0.0771024)" />
  <path
     style="fill:#00cec9;fill-opacity:1;stroke-width:4.42478"
     d="m 522.03881,1620.5065 c -10.45208,-22.4733 -24.8183,-56.7705 -31.92492,-76.2161 -13.95625,-38.188 -36.29845,-125.687 -32.94859,-129.0368 4.46683,-4.4668 104.30132,17.5653 131.83986,29.0953 88.5663,37.0815 111.2582,97.2313 62.62287,165.9956 -17.62189,24.9151 -35.68243,36.2629 -67.44522,42.3772 -13.44656,2.5885 -28.65397,5.5926 -33.79424,6.6758 -8.04023,1.6943 -12.00097,-3.7392 -28.34976,-38.891 z"
     id="path1361"
     transform="scale(0.0771024)" />
  <path
     style="fill:#00cec9;fill-opacity:1;stroke-width:4.42478"
     d="m 351.76991,1385.1285 c -89.32189,-22.7952 -115.61534,-31.788 -157.8817,-53.9984 -56.2497,-29.5584 -110.331595,-90.379 -125.662768,-141.3206 -8.057847,-26.7742 -7.938042,-92.7571 0.238482,-131.3443 C 97.298551,922.38715 249.17638,821.05113 436.07381,813.18832 c 57.05578,-2.40035 131.93663,3.40333 154.47588,11.97275 l 11.42226,4.34272 -21.48899,29.93837 c -25.32884,35.28809 -48.42433,73.48682 -65.07902,107.63725 l -11.99779,24.60153 -49.62334,-1.89944 c -55.8055,-2.13608 -85.79273,2.75904 -119.25258,19.4668 -45.58874,22.7642 -69.0435,55.6337 -69.0435,96.7574 0,21.9101 1.68214,26.3617 15.91431,42.115 27.53671,30.4799 66.78214,48.6429 127.891,59.1888 l 30.97345,5.3453 1.19248,96.1062 c 1.11075,89.5182 0.65577,96.0877 -6.63716,95.8353 -4.30631,-0.1491 -41.67922,-8.9095 -83.0509,-19.4678 z"
     id="path2227"
     transform="scale(0.0771024)" />
  <path
     style="fill:#00cec9;fill-opacity:1;stroke-width:4.42478"
     d="M 353.9823,1849.5679 C 269.55568,1830.4836 192.88892,1795.225 150.51547,1755.9946 91.43735,1701.2987 52.141408,1618.8788 42.70314,1529.8673 l -2.463185,-23.2301 H 143.45082 246.66169 l 2.06272,21.4672 c 4.32024,44.9615 36.99956,88.4769 85.88051,114.3575 46.0955,24.4058 68.15516,29.0823 139.70981,29.6178 l 65.02275,0.4867 26.26411,37.6106 c 14.44527,20.6858 41.22584,54.7105 59.5123,75.6103 l 33.24819,37.9997 -60.37571,14.5932 c -54.04925,13.0641 -68.48964,14.7554 -137.80938,16.1411 -56.91096,1.1377 -85.05633,-0.1751 -106.19469,-4.9534 z"
     id="path2229"
     transform="scale(0.0771024)" />
  <path
     style="fill:#00cec9;fill-opacity:1;stroke-width:4.42478"
     d="m 790.61796,1911.8793 c -49.41804,-31.0256 -109.91496,-77.8821 -107.99418,-83.6444 0.82561,-2.4769 16.9691,-11.0095 35.87442,-18.9614 62.88893,-26.4522 110.05876,-72.5511 144.2469,-140.972 25.41987,-50.8729 31.06021,-77.8599 31.06021,-148.6119 0,-98.0982 -16.93346,-147.5827 -69.7278,-203.7651 -54.43212,-57.9253 -117.30401,-79.8229 -290.5192,-101.1847 -38.73319,-4.7768 -72.52497,-10.7861 -75.09285,-13.354 -3.27531,-3.2753 -2.30119,-16.1973 3.26362,-43.2928 7.83544,-38.1513 40.93807,-146.5202 46.47534,-152.1474 5.46438,-5.5531 56.44056,13.8154 80.45905,30.5705 25.64706,17.8913 49.55988,51.8422 57.64753,81.8467 l 4.47258,16.593 h 103.65607 c 94.21965,0 104.02661,0.7049 107.72629,7.7433 4.79844,9.1288 112.47778,341.328 180.71206,557.5107 l 47.83,151.5372 107.1319,0.013 107.1319,0.013 14.9351,-47.5663 c 8.2143,-26.1615 50.6023,-159.9323 94.1955,-297.2683 l 79.2604,-249.7056 2.6752,85.9851 c 2.8051,90.1646 7.1216,116.9529 28.4716,176.6931 32.5723,91.1422 100.7747,186.5103 176.5863,246.9224 l 17.4676,13.9195 -10.8304,11.6966 c -22.4339,24.2281 -106.9012,94.2729 -142.7317,118.3607 l -37.2319,25.03 H 1178.2768 828.78401 Z"
     id="path2231"
     transform="scale(0.0771024)" />
  <path
     style="fill:#00cec9;fill-opacity:1;stroke-width:4.42478"
     d="m 1184.8231,1476.1067 c -6.0686,-19.3949 -55.612,-178.7529 -110.0966,-354.1288 l -99.06278,-318.86532 -107.30089,-0.008 c -85.24423,-0.006 -107.30088,1.178 -107.30088,5.76016 0,3.17227 6.64845,25.57271 14.77434,49.77876 25.13496,74.87401 25.84983,72.78977 -13.55626,39.52448 -31.88455,-26.91586 -112.48178,-72.94712 -127.72484,-72.94712 -13.95886,0 -4.16878,-14.39053 34.6926,-50.99497 88.22879,-83.10476 176.72791,-136.9773 282.07964,-171.71185 84.55577,-27.87812 110.32657,-31.52566 223.45137,-31.62689 113.3915,-0.10147 139.9351,3.61917 223.017,31.26038 122.8736,40.87988 210.5265,97.25123 312.168,200.76151 l 48.4593,49.35032 -17.7668,10.09171 c -59.929,34.04033 -112.9428,80.78648 -147.3867,129.96182 -10.6755,15.24131 -20.0994,27.02211 -20.942,26.17941 -0.8426,-0.8425 12.4062,-47.13723 29.4419,-102.87706 17.0356,-55.73983 30.9739,-103.8591 30.9739,-106.93171 0,-4.34702 -23.8079,-5.57282 -107.3009,-5.52462 l -107.3009,0.0619 -32.8257,107.23895 c -57.8492,188.98884 -185.6459,597.09694 -187.5844,599.03544 -1.031,1.031 -6.8397,-13.994 -12.9084,-33.3889 z"
     id="path2233"
     transform="scale(0.0771024)" />
  <path
     style="fill:#00cec9;fill-opacity:1;stroke-width:4.42478"
     d="m 1815.1751,1590.9351 c -42.0123,-30.4335 -86.3443,-104.4449 -103.3694,-172.5731 -8.0073,-32.0424 -9.014,-45.9653 -7.0385,-97.3451 3.4376,-89.4083 23.6332,-147.6057 74.6872,-215.2263 16.6488,-22.0512 67.3607,-68.18 74.954,-68.18 7.6681,0 36.7247,112.1716 43.9727,169.755 7.6002,60.3808 3.2088,173.1268 -8.9851,230.6875 -10.1293,47.8149 -34.5866,125.1309 -47.6168,150.5294 l -8.0882,15.7655 z"
     id="path2235"
     transform="scale(0.0771024)" />
  <path
     style="fill:#00cec9;fill-opacity:1;stroke-width:4.42478"
     d="m 2236.222,1121.288 c -22.5529,-42.9432 -65.4352,-88.3033 -99.6367,-105.394 -42.393,-21.18405 -83.586,-28.27354 -151.2374,-26.02861 -52.2332,1.7333 -61.9724,3.36837 -92.8138,15.58201 l -34.4571,13.6456 -21.6827,-42.73235 c -11.9255,-23.50278 -31.6153,-59.58815 -43.755,-80.18969 -12.1397,-20.60155 -21.123,-38.99315 -19.9629,-40.87021 3.6005,-5.82579 85.9329,-29.51198 127.2395,-36.60552 50.1288,-8.60856 147.7368,-8.67226 200.401,-0.13077 69.497,11.27157 152.3273,42.34595 198.3557,74.41455 49.5701,34.53623 91.4361,83.26559 119.016,138.52739 15.3373,30.7312 41.0955,110.7419 36.9774,114.86 -1.1354,1.1354 -46.8808,3.3242 -101.6564,4.8639 l -99.5921,2.7996 z"
     id="path2237"
     transform="scale(0.0771024)" />
  <path
     style="fill:#00cec9;fill-opacity:1;stroke-width:4.42478"
     d="m 1895.7667,1843.2639 c -44.3481,-10.3984 -93.7256,-29.3847 -131.809,-50.6821 l -29.1603,-16.3073 28.0459,-37.9287 c 15.4253,-20.8608 37.3676,-53.5997 48.7609,-72.753 11.3932,-19.1534 22.1047,-35.6685 23.8032,-36.7002 1.6985,-1.0317 19.3812,4.8787 39.295,13.1343 51.5402,21.3669 82.0574,28.3271 124.2014,28.3271 63.7654,0 133.1616,-19.21 175.7746,-48.6573 43.9254,-30.3542 78.2958,-80.2493 92.2134,-133.8648 l 6.6044,-25.4425 H 2156.6596 2039.823 v -92.9204 -92.9203 H 2250 2460.177 v 283.1858 283.1859 h -86.2832 -86.2832 v -50.885 c 0,-33.7358 -1.6234,-50.885 -4.817,-50.885 -2.6494,0 -15.094,9.1024 -27.6549,20.2275 -26.1352,23.1479 -115.4667,68.8397 -155.5812,79.5775 -17.1476,4.59 -51.6181,7.7369 -97.3451,8.8869 -58.3722,1.468 -77.0526,0.3137 -106.4457,-6.5784 z"
     id="path2239"
     transform="scale(0.0771024)" />
</svg>
