<?xml version="1.0" encoding="UTF-8" standalone="no"?>
<svg
   data-name="Livello 1"
   id="Livello_1"
   viewBox="0 0 128 128"
   version="1.1"
   sodipodi:docname="menu.svg"
   inkscape:version="1.2.1 (9c6d41e410, 2022-07-14)"
   xmlns:inkscape="http://www.inkscape.org/namespaces/inkscape"
   xmlns:sodipodi="http://sodipodi.sourceforge.net/DTD/sodipodi-0.dtd"
   xmlns="http://www.w3.org/2000/svg"
   xmlns:svg="http://www.w3.org/2000/svg">
  <defs
     id="defs15" />
  <sodipodi:namedview
     id="namedview13"
     pagecolor="#ffffff"
     bordercolor="#000000"
     borderopacity="0.25"
     inkscape:showpageshadow="2"
     inkscape:pageopacity="0.0"
     inkscape:pagecheckerboard="0"
     inkscape:deskcolor="#d1d1d1"
     showgrid="false"
     inkscape:zoom="4.4140625"
     inkscape:cx="64.226549"
     inkscape:cy="64.226549"
     inkscape:window-width="1366"
     inkscape:window-height="748"
     inkscape:window-x="-8"
     inkscape:window-y="-8"
     inkscape:window-maximized="1"
     inkscape:current-layer="Livello_1" />
  <title
     id="title2" />
  <path
     d="M64,0a64,64,0,1,0,64,64A64.07,64.07,0,0,0,64,0Zm0,122a58,58,0,1,1,58-58A58.07,58.07,0,0,1,64,122Z"
     id="path4" />
  <path
     d="M90,61H38a3,3,0,0,0,0,6H90a3,3,0,0,0,0-6Z"
     id="path6" />
  <path
     d="M90,74H38a3,3,0,0,0,0,6H90a3,3,0,0,0,0-6Z"
     id="path8" />
  <path
     d="M90,48H38a3,3,0,0,0,0,6H90a3,3,0,0,0,0-6Z"
     id="path10" />
  <path
     style="fill:#4d4d4d;stroke-width:0.226549"
     d="M 58.449558,127.65078 C 52.772026,127.07525 46.936961,125.75246 41.911504,123.90164 35.955186,121.708 28.950499,117.74 23.900885,113.69902 21.425216,111.71785 16.282147,106.57478 14.300979,104.09912 10.259997,99.049501 6.2919947,92.044814 4.0983577,86.088496 2.7166743,82.336852 1.4048978,77.2026 0.76395364,73.037747 0.09173171,68.669648 0.02911862,59.879741 0.64067246,55.730973 2.1269656,45.647992 5.4710127,36.77259 10.797677,28.773367 13.519176,24.686402 15.340094,22.469966 18.90503,18.90503 22.486456,15.323605 24.674039,13.529172 28.884956,10.71869 36.385316,5.7127415 45.557814,2.211236 54.962253,0.76395364 59.330352,0.0917317 68.120259,0.02911862 72.269027,0.64067246 86.777163,2.7792608 99.132674,8.9074525 109.0867,18.901814 c 5.06636,5.086902 8.86702,10.340994 11.974,16.553053 3.06503,6.128196 5.10564,12.572074 6.17748,19.507386 0.72835,4.71279 0.72835,13.362704 0,18.075494 -1.45617,9.422121 -4.95269,18.579583 -9.95687,26.077297 -2.87521,4.307896 -4.6255,6.429966 -8.40864,10.194686 -9.785287,9.73767 -21.917687,15.80615 -35.810723,17.9121 -3.515859,0.53295 -11.325026,0.76218 -14.612389,0.42895 z m 14.952212,-6.29945 c 12.600841,-2.17771 23.618603,-7.9581 32.29045,-16.94095 11.43209,-11.842089 17.0563,-26.907948 16.26875,-43.579887 C 121.09264,42.448536 111.26922,25.471162 95.556642,15.197109 88.362736,10.493196 80.147975,7.5242836 71.023009,6.3303621 67.050081,5.8105394 58.463905,5.9766381 54.585854,6.6483372 41.972154,8.8330969 31.194581,14.472388 22.418733,23.479563 13.383874,32.752577 8.0542718,43.812551 6.3532111,56.818683 5.8916155,60.347995 5.8913459,67.648641 6.3526901,71.181317 8.102719,84.582176 13.879648,96.225801 23.365983,105.47228 c 9.726836,9.48089 20.884378,14.70814 34.970309,16.38342 0.436106,0.0519 3.392567,0.0653 6.569912,0.0299 4.599697,-0.0513 6.331011,-0.16017 8.495575,-0.53425 z"
     id="path936" />
  <path
     style="fill:#4d4d4d;stroke-width:0.226549"
     d="m 36.908956,79.640357 c -0.912565,-0.371962 -1.681265,-1.555179 -1.67261,-2.574553 0.0097,-1.146986 0.371845,-1.849136 1.253265,-2.430172 0.647258,-0.426675 1.354697,-0.437995 27.465002,-0.439449 29.433929,-0.0016 27.732526,-0.08233 28.47341,1.350384 0.189012,0.365508 0.343658,1.078908 0.343658,1.585332 0,0.732524 -0.158545,1.093781 -0.775482,1.767003 l -0.775486,0.846231 -26.92009,0.04372 c -14.806051,0.02405 -27.132301,-0.04278 -27.391667,-0.148495 z"
     id="path938" />
  <path
     style="fill:#4d4d4d;stroke-width:0.226549"
     d="m 36.908219,66.623114 c -1.643375,-0.715526 -2.26028,-2.95692 -1.188766,-4.31913 C 36.7472,60.997416 35.446475,61.054867 64,61.054867 c 28.553524,0 27.252799,-0.05745 28.280547,1.249117 0.675031,0.858163 0.675031,2.533869 0,3.392032 -1.028241,1.307198 0.281017,1.24988 -28.329907,1.240249 -21.536207,-0.0072 -26.471093,-0.0644 -27.042421,-0.313151 z"
     id="path940" />
  <path
     style="fill:#666666;stroke-width:0.226549"
     d="m 36.489611,53.364368 c -0.885529,-0.583745 -1.243568,-1.283926 -1.253265,-2.450881 -0.0066,-0.790291 0.133137,-1.120196 0.767485,-1.812389 l 0.775513,-0.846231 H 64 91.220657 l 0.775512,0.846231 c 0.616974,0.673234 0.775512,1.034466 0.775512,1.767003 0,0.506424 -0.154646,1.219824 -0.343658,1.585332 -0.740884,1.432715 0.960519,1.352023 -28.47341,1.350384 -26.110305,-0.0015 -26.817744,-0.01277 -27.465002,-0.439449 z"
     id="path942" />
  <path
     style="fill:#666666;stroke-width:0.226549"
     d="m 58.719932,127.59084 c -0.270479,-0.10044 -0.798777,-0.16278 -1.173998,-0.13854 -0.375219,0.0242 -0.835138,-0.01 -1.02204,-0.0758 -0.186903,-0.0659 -1.410266,-0.29369 -2.718584,-0.50617 -3.243187,-0.52672 -8.729396,-1.94022 -11.45547,-2.95144 -6.081933,-2.25607 -13.290795,-6.31031 -18.303941,-10.29407 -2.287747,-1.81799 -7.852772,-7.38301 -9.67076,-9.67076 C 10.398424,98.949825 6.2873471,91.642674 4.0688524,85.635398 3.0465407,82.867166 1.389957,76.364324 0.90729411,73.224849 0.41351719,70.013082 0.21170262,61.662677 0.5389384,57.983533 1.4192601,48.085991 5.1254825,37.671972 10.854454,28.99823 13.636948,24.785496 15.254204,22.805379 18.915247,19.128856 26.032058,11.981951 33.69653,7.1596827 43.186013,3.8583806 46.218704,2.803335 50.261162,1.714729 52.899115,1.2427075 c 0.809912,-0.1449212 1.625487,-0.31512113 1.812389,-0.37822198 1.635075,-0.55202271 17.957139,-0.5403857 18.510722,0.0131974 0.07798,0.0779823 0.354174,0.14270958 0.613763,0.14383838 1.560021,0.00678 9.341252,2.1173599 12.956477,3.5143071 17.521754,6.7705236 31.175974,20.8923686 37.342794,38.6216936 1.20029,3.450796 2.42134,8.231472 2.8353,11.100885 0.1528,1.059115 0.35414,2.078584 0.44742,2.265487 0.0933,0.186902 0.15558,3.449203 0.13845,7.249557 -0.0345,7.646596 -0.2098,9.288666 -1.58854,14.87817 -2.319,9.401351 -6.44103,17.866571 -12.28103,25.220949 -3.37244,4.24696 -9.63068,9.93481 -14.571816,13.24372 -7.510111,5.02927 -17.207307,8.75773 -25.764569,9.90616 -1.155505,0.15508 -2.100917,0.36803 -2.100917,0.47321 0,0.10519 -0.07934,0.14223 -0.176298,0.0823 -0.09697,-0.0599 -2.805479,-0.0405 -6.018925,0.0433 -3.213444,0.0837 -6.063924,0.0701 -6.334403,-0.0304 z m 15.361484,-6.24672 c 1.370619,-0.25739 3.803501,-0.82799 5.406403,-1.26799 2.970257,-0.81536 8.752889,-2.96903 8.752889,-3.25992 0,-0.0883 0.213912,-0.17661 0.475363,-0.1963 0.261448,-0.0197 1.59388,-0.65457 2.960959,-1.41082 5.200436,-2.87683 9.2982,-5.95333 13.44012,-10.09051 7.44971,-7.441157 12.68559,-16.551753 15.18975,-26.430616 1.44768,-5.711059 2.11935,-12.869909 1.69692,-18.086194 -0.13623,-1.682124 -0.25386,-3.211328 -0.2614,-3.39823 -0.0866,-2.144483 -1.89097,-10.421239 -2.27195,-10.421239 -0.12063,0 -0.16672,-0.08513 -0.10242,-0.189168 0.16263,-0.263139 -0.34743,-1.84977 -0.59465,-1.84977 -0.11105,0 -0.14321,-0.09498 -0.0715,-0.211073 0.24446,-0.395543 -3.03256,-7.944679 -3.44872,-7.944679 -0.11234,0 -0.20425,-0.147889 -0.20425,-0.328639 0,-0.45889 -2.57768,-4.673538 -2.9444,-4.814263 -0.16511,-0.06336 -0.25514,-0.188106 -0.20006,-0.277216 0.0551,-0.08911 -0.55412,-1.033765 -1.35376,-2.099228 -4.2282,-5.633753 -9.51943,-10.51729 -15.589521,-14.388358 -2.633345,-1.679355 -8.189671,-4.470802 -8.507754,-4.274216 -0.117153,0.07241 -0.247224,0.02899 -0.289047,-0.09648 C 85.985278,9.7717633 77.21907,7.1133911 74.590083,6.7992673 74.061113,6.7360632 73.067611,6.5606966 72.382301,6.4095635 71.225541,6.1544602 59.919401,5.9906653 57.543363,6.1945881 53.713857,6.5232545 45.423009,8.438888 45.423009,8.9950448 c 0,0.1138042 -0.08922,0.1517774 -0.198262,0.084385 -0.275884,-0.1705062 -2.293774,0.5421622 -2.293774,0.8101038 0,0.1202424 -0.09852,0.1577344 -0.218934,0.083314 C 42.366011,9.758991 37.338477,12.129188 34.357903,13.91135 21.619749,21.527818 12.206628,33.629789 8.1544135,47.599845 7.4783311,49.930646 6.498376,54.629011 6.2724613,56.622807 c -0.270208,2.384704 -0.1662007,14.389559 0.1365363,15.759494 0.1514444,0.68531 0.3270656,1.678812 0.3902697,2.207782 0.3141238,2.628987 2.972496,11.395195 3.5099447,11.574345 0.125469,0.04182 0.171833,0.167123 0.103033,0.278444 -0.175962,0.284713 2.060963,4.891637 3.623012,7.461553 1.808963,2.976147 4.437367,6.545215 6.100009,8.283115 0.767427,0.80216 1.345635,1.45848 1.284907,1.45848 -0.06073,0 0.494885,0.61168 1.234694,1.35929 0.739811,0.74761 1.431342,1.35929 1.536739,1.35929 0.105395,0 0.449212,0.30612 0.764035,0.68027 1.611706,1.9154 7.748144,6.2891 11.884533,8.4706 2.740217,1.44517 7.375301,3.38227 7.664862,3.20331 0.109794,-0.0678 0.236952,-0.0114 0.282572,0.12546 0.04562,0.13686 0.360094,0.26493 0.698837,0.2846 0.33874,0.0197 0.615963,0.12313 0.616049,0.22991 8.8e-5,0.10678 0.153081,0.13547 0.339984,0.0637 0.186903,-0.0717 0.339823,-0.0469 0.339823,0.0551 0,0.40959 9.64538,2.46464 10.3317,2.20128 0.165868,-0.0637 0.370085,-0.005 0.453818,0.1306 0.10696,0.17307 2.214712,0.21009 7.0869,0.12447 5.679808,-0.0998 7.385604,-0.20654 9.426697,-0.58983 z"
     id="path1751" />
  <path
     style="fill:#666666;stroke-width:0.226549"
     d="M 63.924752,79.631858 36.776935,79.518584 36.115901,78.778727 c -1.206679,-1.350567 -0.779632,-3.618452 0.773452,-4.107507 1.009519,-0.317891 32.175824,-0.536032 44.521202,-0.311615 l 10.047724,0.182649 0.543427,0.631772 c 0.8482,0.986092 0.765852,2.566002 -0.192856,3.700115 l -0.736284,0.870992 z"
     id="path1753" />
  <path
     style="fill:#666666;stroke-width:0.226549"
     d="m 37.045366,66.468601 c -1.414976,-0.571746 -2.074972,-2.092403 -1.502649,-3.462165 0.696834,-1.667757 0.04267,-1.588981 15.024161,-1.809244 7.638163,-0.112299 19.24103,-0.112299 26.896264,0 13.155607,0.192987 13.477747,0.208342 14.102655,0.672234 1.384808,1.027996 1.384792,3.233189 -3e-5,4.261148 L 90.926223,66.60531 64.266652,66.65044 C 46.879298,66.67987 37.411715,66.61663 37.045366,66.468601 Z"
     id="path1755" />
  <path
     style="fill:#808080;stroke-width:0.226549"
     d="m 45.989381,53.600561 c -4.984071,-0.07429 -9.234238,-0.220095 -9.444816,-0.324009 -0.659505,-0.325445 -1.089698,-1.228408 -1.089698,-2.287247 0,-0.817354 0.139445,-1.178375 0.703115,-1.82036 l 0.703115,-0.800803 H 64 91.138904 l 0.72815,0.829317 c 0.668303,0.761155 0.719827,0.929681 0.626883,2.050439 -0.117377,1.41542 -0.453478,1.83804 -1.673003,2.103664 -1.136563,0.247554 -33.040506,0.424752 -44.831553,0.248999 z"
     id="path1757" />
  <path
     style="fill:#808080;stroke-width:0.226549"
     d="m 58.449558,127.4915 c -2.551167,-0.16869 -9.429987,-1.63265 -13.574926,-2.88904 -6.363555,-1.92888 -14.544948,-6.25494 -20.294101,-10.73087 -2.500873,-1.94703 -8.54807,-7.99121 -10.457327,-10.45212 C 10.296999,98.487736 6.4609874,91.631849 4.3233321,85.904708 3.3916772,83.408647 1.6901742,77.004261 1.0918633,73.741593 0.50045565,70.516571 0.50347649,57.690397 1.0964787,54.145133 2.8304939,43.778318 7.0948536,33.995441 13.786196,25.033628 15.702593,22.466968 21.346176,16.756784 24.353982,14.341127 32.15821,8.0733254 41.177093,3.9187574 52.365364,1.4376219 L 55.730973,0.69125693 64,0.68545149 c 8.231877,-0.005779 8.282182,-0.002942 11.197105,0.63167131 13.872807,3.0202721 24.384122,8.5463096 33.454645,17.5878672 9.77494,9.743732 15.50241,20.832807 18.25989,35.353417 0.34404,1.811653 0.40763,3.353129 0.40189,9.741593 -0.007,8.057489 -0.0675,8.723542 -1.24113,13.709797 -2.84245,12.076755 -8.4972,22.471793 -16.63635,30.582313 -5.50565,5.48629 -10.421482,9.14158 -16.40423,12.19777 -6.619462,3.38143 -11.880824,5.11625 -19.290227,6.36051 -2.679267,0.44993 -4.287477,0.5668 -8.722124,0.63383 -2.990442,0.0452 -5.946903,0.0485 -6.569911,0.007 z m 12.913765,-5.72163 c 2.173508,-0.19096 6.790946,-1.16198 9.288004,-1.95322 10.196757,-3.23101 17.232382,-7.4541 24.476453,-14.69184 6.98646,-6.980357 11.5427,-14.427943 14.45281,-23.624435 0.91893,-2.903971 1.84253,-7.154996 1.65864,-7.634185 -0.0679,-0.17703 -0.0372,-0.353946 0.0684,-0.393146 0.47717,-0.177224 1.22747,-11.731211 0.8292,-12.769096 -0.0837,-0.218219 -0.19477,-1.324463 -0.24673,-2.458318 -0.23449,-5.116983 -2.60808,-13.828055 -5.24823,-19.261014 -2.95532,-6.08152 -6.16309,-10.688438 -10.72166,-15.398147 C 100.71603,18.209738 94.328594,13.650913 88.353982,11.049144 84.321844,9.2932653 82.866627,8.7731007 79.065487,7.7289896 74.350662,6.4339041 72.474123,6.2068904 65.359292,6.0708871 c -7.167139,-0.1370033 -8.5846,-0.034596 -13.59292,0.9820488 -2.582825,0.5242905 -8.174801,2.1765238 -8.722124,2.5770827 -0.124602,0.09119 -0.634336,0.2941982 -1.132744,0.4511294 -1.590915,0.500926 -7.398098,3.551708 -9.741592,5.11771 -3.81112,2.546719 -5.975978,4.335993 -9.411819,7.778955 -5.018878,5.029278 -8.194604,9.487674 -11.227319,15.76201 -1.9496808,4.033663 -3.0212502,7.024538 -4.0583891,11.327434 -1.3531208,5.613846 -1.5189003,7.413427 -1.3932036,15.123594 0.120802,7.409949 0.2756626,8.675375 1.7217916,14.069409 4.0647551,15.161457 13.6595101,27.46539 27.8323991,35.69115 5.123722,2.97374 12.944721,5.59861 19.961783,6.69952 2.269995,0.35615 12.214521,0.43115 15.768168,0.11894 z"
     id="path2570" />
  <path
     style="fill:#808080;stroke-width:0.226549"
     d="m 49.513423,79.461966 c -12.557574,-0.06052 -12.561054,-0.06067 -13.086996,-0.554762 -0.289346,-0.271826 -0.636284,-0.862049 -0.770975,-1.311608 -0.325406,-1.086108 0.189741,-2.387985 1.091112,-2.757454 0.775394,-0.317831 43.52821,-0.536318 50.353,-0.257328 l 4.409301,0.180248 0.536574,0.79292 c 0.658853,0.97362 0.564437,1.934073 -0.31486,3.202899 l -0.60636,0.874977 -14.524941,-0.05468 C 68.61056,79.547105 56.421925,79.495259 49.513423,79.461966 Z"
     id="path2572" />
  <path
     style="fill:#808080;stroke-width:0.226549"
     d="m 37.040708,66.33204 c -0.676255,-0.247208 -1.35528,-1.060803 -1.491541,-1.787134 -0.179609,-0.957401 0.263515,-2.29036 0.869151,-2.614486 0.271177,-0.14513 2.566148,-0.333954 5.362387,-0.441202 5.798858,-0.222412 38.24347,-0.232345 44.840166,-0.01373 l 4.610252,0.152786 0.542113,0.630243 c 1.03477,1.202992 0.989522,2.464905 -0.128473,3.582899 l -0.650616,0.650617 -26.806809,-0.01789 c -14.743744,-0.0098 -26.959727,-0.07379 -27.14663,-0.14211 z"
     id="path2574" />
  <path
     style="fill:#999999;stroke-width:0.226549"
     d="m 40.729796,53.366313 c -4.598778,-0.141941 -4.701938,-0.177137 -5.05062,-1.723147 -0.212912,-0.944024 0.07254,-1.845321 0.875812,-2.76529 l 0.445074,-0.509734 27.036251,6e-6 27.036253,7e-6 0.623009,0.780809 c 0.781722,0.979723 0.874252,2.709894 0.190129,3.555142 l -0.43288,0.534832 -6.986589,0.147292 c -8.295834,0.174894 -37.86093,0.16143 -43.736439,-0.01992 z"
     id="path2576" />
  <path
     style="fill:#999999;stroke-width:0.226549"
     d="M 57.316814,127.27465 C 53.777136,126.80027 47.035992,125.20652 43.497345,124.00743 38.096273,122.17725 30.40403,118.07365 25.553759,114.43503 22.400125,112.0692 15.938505,105.61084 13.590158,102.47747 10.483331,98.332058 7.0672411,92.294819 5.0217223,87.334513 3.3051705,83.17194 1.3492702,75.504305 0.98136456,71.495263 0.62800518,67.644731 0.86733226,55.84159 1.3512932,53.251111 3.5368704,41.552454 9.1570568,30.093591 16.828283,21.695447 26.557642,11.044142 37.36404,4.9479832 52.679166,1.4710683 l 2.987107,-0.67814795 h 7.988514 c 8.798254,0 9.711234,0.0895456 14.957602,1.46705175 11.733389,3.0807617 20.728955,7.9709959 28.916721,15.7199129 9.16394,8.672769 15.19168,19.226856 18.32601,32.087372 1.28076,5.25512 1.41864,6.906565 1.29066,15.459609 -0.1035,6.917317 -0.15118,7.6066 -0.7015,10.140391 -3.0779,14.171335 -9.47513,25.623953 -19.41184,34.751983 -4.88461,4.48708 -8.998144,7.36764 -14.600582,10.22427 -7.185729,3.66394 -15.402156,6.01825 -22.886565,6.55784 -3.027198,0.21825 -10.79929,0.26484 -12.228479,0.0733 z m 17.557522,-5.92829 C 85.288557,119.1452 94.110908,114.95438 101.26726,108.80912 115.05488,96.969479 121.97624,82.195377 122.25941,64 122.43024,53.022944 118.85284,41.069867 112.59746,31.716814 107.4203,23.975907 100.01693,17.175377 91.788456,12.602225 87.158836,10.029215 78.923864,7.2398891 73.515044,6.4127076 72.212408,6.2134929 69.023973,6.1179859 63.660177,6.1175131 56.264994,6.1168561 55.563137,6.1518264 53.238938,6.6366795 45.188461,8.3160952 39.503541,10.565322 32.70216,14.762012 28.347338,17.44909 23.453526,21.786898 19.19707,26.732743 14.807717,31.833009 10.896548,38.754082 8.7630379,45.19646 7.7494637,48.257063 6.5188388,53.537352 6.2116368,56.143854 5.8257478,59.417987 6.0622932,71.878719 6.5586013,74.421239 8.313612,83.411925 11.97829,91.89002 17.071438,98.742295 c 5.325874,7.165375 13.361434,13.891415 20.988739,17.568275 5.309229,2.5594 12.636201,4.76965 18.350442,5.53558 0.373806,0.0501 4.145841,0.0713 8.382301,0.047 6.98873,-0.04 7.923132,-0.0907 10.081416,-0.54683 z"
     id="path3393" />
  <path
     style="fill:#999999;stroke-width:0.226549"
     d="M 63.17413,79.414201 C 38.350129,79.297946 37.066019,79.272062 36.632,78.879197 c -1.074007,-0.972169 -1.196075,-2.827744 -0.242784,-3.690572 0.455729,-0.412482 1.340554,-0.430359 25.085836,-0.506826 13.537393,-0.04359 25.845814,-0.0088 27.352048,0.07734 2.692667,0.153973 2.744916,0.167289 3.115044,0.793864 0.530171,0.897511 0.469613,1.694139 -0.225937,2.972094 -0.579874,1.065422 -0.636998,1.104981 -1.529204,1.059018 -0.509754,-0.02626 -12.665547,-0.10272 -27.012873,-0.169911 z"
     id="path3395" />
  <path
     style="fill:#999999;stroke-width:0.226549"
     d="m 58.298821,66.322141 -21.446314,-0.05895 -0.585545,-0.695882 c -0.673867,-0.800845 -0.76903,-1.91464 -0.249436,-2.919425 0.300851,-0.581781 0.496924,-0.669724 1.869027,-0.838307 0.843104,-0.103588 13.137757,-0.188341 27.321452,-0.188341 h 25.788534 l 0.661024,0.739857 c 0.929547,1.040407 0.914373,2.24078 -0.04209,3.330136 l -0.703114,0.800803 -5.583612,-0.05547 c -3.070987,-0.03051 -15.234451,-0.082 -27.029923,-0.114421 z"
     id="path3397" />
</svg>
